# xmcd
#
# Track frame offsets: 
#        150
#        12655
#        26853
#        38887
#        53206
#        69035
#        84852
#        98718
#        130464
#        169671
#        191360
#        205421
#        220928
#
# Disc length: 3115 seconds
#
# Revision: 1
# Processed by: cddbd v1.5.2PL0 Copyright (c) Steve Scherf et al.
# Submitted via: ExactAudioCopy v0.95b4
#
DISCID=b00c290d
DTITLE=Webster, Ben - Planet Jazz
DYEAR=1998
DGENRE=Jazz
TTITLE0=Lafayette
TTITLE1=The voice of old man river
TTITLE2=Early session hop
TTITLE3=Cotton tail
TTITLE4=All too soon
TTITLE5=Linger awhile
TTITLE6=Cadillac Slim
TTITLE7=The night is blue
TTITLE8=Sunrise blues
TTITLE9=Summertime
TTITLE10=Bess, you is my woman now
TTITLE11=My man's gone now
TTITLE12=I got plenty o'nuttin'
EXTD=YEAR: 1998
EXTT0=
EXTT1=
EXTT2=
EXTT3=
EXTT4=
EXTT5=
EXTT6=
EXTT7=
EXTT8=
EXTT9=
EXTT10=
EXTT11=
EXTT12=
PLAYORDER=
